<svg xmlns="http://www.w3.org/2000/svg" width="32" height="32" viewBox="0 0 32 32" fill="none"><script xmlns=""/> <path id="stick" d="M16.9149 14.2171V25.3577H14.7344V13.4399L16.9149 14.2171Z"/> <path id="tilda" d="M8.53018 13.2343C8.45247 10.3406 9.97933 8.84119 11.9679 8.84119C13.1839 8.84119 14.1119 9.22976 16.0822 10.1578C17.5313 10.8572 18.5873 11.3738 19.6753 11.3738C20.7633 11.3738 21.2022 10.5189 21.225 8.94176H22.9576C23.113 12.1738 21.4582 13.3349 19.6479 13.3349C18.4868 13.3349 17.449 12.9966 15.4605 12.0686C14.089 11.3966 13.0285 10.8023 11.9953 10.8023C10.9622 10.8023 10.313 11.5246 10.2902 13.2846H8.53018V13.2343Z"/> <path id="circle" fill-rule="evenodd" clip-rule="evenodd" d="M21.9316 1.67987C19.0993 0.506716 15.9829 0.199764 12.9761 0.797836C9.96941 1.39591 7.20757 2.87214 5.03985 5.03985C2.87214 7.20757 1.39591 9.96941 0.797835 12.9761C0.199764 15.9829 0.506716 19.0993 1.67987 21.9316C2.85304 24.7639 4.83971 27.1846 7.38867 28.8878C9.93763 30.5909 12.9344 31.5 16 31.5C20.1109 31.5 24.0533 29.867 26.9601 26.9601C29.867 24.0533 31.5 20.1109 31.5 16C31.5 12.9344 30.5909 9.93763 28.8878 7.38867C27.1846 4.83971 24.7639 2.85304 21.9316 1.67987ZM8.48235 4.74904C10.7075 3.26224 13.3235 2.46864 15.9997 2.46858C19.5872 2.47303 23.0264 3.90012 25.5631 6.43686C28.1 8.97366 29.527 12.413 29.5315 16.0006C29.5313 18.6767 28.7377 21.2926 27.251 23.5176C25.7641 25.7429 23.6508 27.4773 21.1783 28.5014C18.7057 29.5256 15.985 29.7936 13.3601 29.2715C10.7353 28.7493 8.32424 27.4606 6.43185 25.5682C4.53944 23.6757 3.25069 21.2647 2.72858 18.6399C2.20647 16.015 2.47444 13.2943 3.49859 10.8217C4.52276 8.34921 6.25711 6.23589 8.48235 4.74904Z"/> <style> #stick, #tilda, #circle { fill: #000; } @media (prefers-color-scheme: dark) { #stick, #tilda, #circle { fill: #fff; } } </style> <script xmlns=""/></svg>